<?xml version="1.0" standalone="no"?>
<!DOCTYPE svg PUBLIC "-//W3C//DTD SVG 20010904//EN"
 "http://www.w3.org/TR/2001/REC-SVG-20010904/DTD/svg10.dtd">
<svg version="1.0" xmlns="http://www.w3.org/2000/svg"
 width="1024.000000pt" height="1024.000000pt" viewBox="0 0 1024.000000 1024.000000"
 preserveAspectRatio="xMidYMid meet">

<g transform="translate(0.000000,1024.000000) scale(0.100000,-0.100000)"
fill="#000000" stroke="none">
<path d="M3545 8040 c-310 -20 -580 -132 -834 -349 -157 -134 -314 -372 -385
-585 -74 -223 -77 -272 -74 -1166 l3 -765 473 -3 c524 -2 547 0 671 61 89 43
195 149 243 242 65 127 69 151 74 540 3 199 10 368 16 392 13 52 67 117 122
146 40 22 51 22 501 28 500 6 489 4 609 67 132 69 244 201 298 352 23 65 23
67 23 555 l0 490 -815 1 c-448 0 -864 -3 -925 -6z"/>
<path d="M7045 5423 c-170 -23 -365 -162 -447 -318 -71 -137 -71 -137 -77
-580 -7 -447 -4 -429 -82 -505 -76 -73 -76 -73 -604 -80 -458 -5 -472 -6 -535
-29 -223 -79 -375 -231 -447 -446 l-27 -80 -1 -435 0 -435 920 -3 c628 -2 950
1 1015 8 323 38 643 204 852 443 166 191 262 386 320 647 l23 105 0 855 0 855
-440 1 c-242 1 -453 -1 -470 -3z"/>
</g>
</svg>
